# Exported from Wings 3D 2.2.5
mtllib ramp.mtl
o Cube1
#6 vertices, 5 faces
v -1.00000000 -0.41155556 -1.77568000
v -1.00000000 -0.41155556 1.77568000
v -1.00000000 0.70844444 -1.77568000
v -1.00000000 0.70844444 1.77568000
v 1.00000000 -0.41155556 -1.77568000
v 1.00000000 -0.41155556 1.77568000
vn 0.0000000e+0 -1.00000000 0.0000000e+0
vn 0.0000000e+0 0.0000000e+0 -1.00000000
vn -1.00000000 0.0000000e+0 0.0000000e+0
vn 0.0000000e+0 -1.00000000 0.0000000e+0
vn 0.0000000e+0 0.0000000e+0 1.00000000
vn -1.00000000 0.0000000e+0 0.0000000e+0
vn 0.0000000e+0 0.0000000e+0 -1.00000000
vn 0.48860337 0.87250602 0.0000000e+0
vn -1.00000000 0.0000000e+0 0.0000000e+0
vn 0.0000000e+0 0.0000000e+0 1.00000000
vn 0.48860337 0.87250602 0.0000000e+0
vn -1.00000000 0.0000000e+0 0.0000000e+0
vn 0.0000000e+0 -1.00000000 0.0000000e+0
vn 0.0000000e+0 0.0000000e+0 -1.00000000
vn 0.48860337 0.87250602 0.0000000e+0
vn 0.0000000e+0 -1.00000000 0.0000000e+0
vn 0.0000000e+0 0.0000000e+0 1.00000000
vn 0.48860337 0.87250602 0.0000000e+0
g Cube1_default
usemtl default
s 1
f 2//5 6//17 4//10
f 3//7 5//14 1//2
s 2
f 1//1 5//13 6//16 2//4
s 3
f 2//6 4//12 3//9 1//3
s 4
f 4//11 6//18 5//15 3//8
