# Exported from Wings 3D 2.2.5
mtllib bump.mtl
o Cube1
#16 vertices, 14 faces
v -0.23377778 -0.44533333 -0.76888889
v -0.23377778 -0.44533333 0.76888889
v -0.23377778 0.44533333 -0.76888889
v -0.23377778 0.44533333 0.76888889
v 0.23377778 -0.44533333 -0.76888889
v 0.23377778 -0.44533333 0.76888889
v 0.23377778 0.44533333 -0.76888889
v 0.23377778 0.44533333 0.76888889
v 0.26222222 -0.22283040 -1.22016373
v 0.26222222 0.22283040 -1.22016373
v 0.72977778 0.22283040 -1.22016373
v 0.72977778 -0.22283040 -1.22016373
v 0.26222222 0.22283040 1.22016373
v 0.26222222 -0.22283040 1.22016373
v 0.72977778 -0.22283040 1.22016373
v 0.72977778 0.22283040 1.22016373
vt 0.0000000e+0 0.0000000e+0
vt 1.6653345e-16 0.57919075
vt 1.00000000 1.1102230e-16
vt 1.00000000 0.57919075
vn 0.0000000e+0 -1.00000000 0.0000000e+0
vn -1.00000000 0.0000000e+0 0.0000000e+0
vn -0.67297137 0.0000000e+0 -0.73966853
vn 0.0000000e+0 -0.89690521 -0.44222284
vn 0.0000000e+0 -1.00000000 0.0000000e+0
vn -1.00000000 0.0000000e+0 0.0000000e+0
vn -0.67297137 0.0000000e+0 0.73966853
vn 0.0000000e+0 -0.89690521 0.44222284
vn 0.0000000e+0 1.00000000 0.0000000e+0
vn -1.00000000 0.0000000e+0 0.0000000e+0
vn -0.67297137 0.0000000e+0 -0.73966853
vn 0.0000000e+0 0.89690521 -0.44222284
vn 0.0000000e+0 1.00000000 0.0000000e+0
vn -1.00000000 0.0000000e+0 0.0000000e+0
vn -0.67297137 0.0000000e+0 0.73966853
vn 0.0000000e+0 0.89690521 0.44222284
vn 0.0000000e+0 -1.00000000 0.0000000e+0
vn 1.00000000 0.0000000e+0 0.0000000e+0
vn 0.67297137 0.0000000e+0 0.73966853
vn 0.0000000e+0 -0.89690521 -0.44222284
vn 0.0000000e+0 -1.00000000 0.0000000e+0
vn 1.00000000 0.0000000e+0 0.0000000e+0
vn 0.0000000e+0 -0.89690521 0.44222284
vn 0.67297137 0.0000000e+0 -0.73966853
vn 0.0000000e+0 1.00000000 0.0000000e+0
vn 1.00000000 0.0000000e+0 0.0000000e+0
vn 0.0000000e+0 0.89690521 -0.44222284
vn 0.67297137 0.0000000e+0 0.73966853
vn 0.0000000e+0 1.00000000 0.0000000e+0
vn 1.00000000 0.0000000e+0 0.0000000e+0
vn 0.67297137 0.0000000e+0 -0.73966853
vn 0.0000000e+0 0.89690521 0.44222284
vn 0.0000000e+0 0.0000000e+0 -1.00000000
vn -0.67297137 0.0000000e+0 -0.73966853
vn 0.0000000e+0 -0.89690521 -0.44222284
vn 0.0000000e+0 0.0000000e+0 -1.00000000
vn -0.67297137 0.0000000e+0 -0.73966853
vn 0.0000000e+0 0.89690521 -0.44222284
vn 0.0000000e+0 0.0000000e+0 -1.00000000
vn 0.0000000e+0 0.89690521 -0.44222284
vn 0.67297137 0.0000000e+0 0.73966853
vn 0.0000000e+0 0.0000000e+0 -1.00000000
vn 0.67297137 0.0000000e+0 0.73966853
vn 0.0000000e+0 -0.89690521 -0.44222284
vn 0.0000000e+0 0.0000000e+0 1.00000000
vn -0.67297137 0.0000000e+0 0.73966853
vn 0.0000000e+0 0.89690521 0.44222284
vn 0.0000000e+0 0.0000000e+0 1.00000000
vn -0.67297137 0.0000000e+0 0.73966853
vn 0.0000000e+0 -0.89690521 0.44222284
vn 0.0000000e+0 0.0000000e+0 1.00000000
vn 0.0000000e+0 -0.89690521 0.44222284
vn 0.67297137 0.0000000e+0 -0.73966853
vn 0.0000000e+0 0.0000000e+0 1.00000000
vn 0.67297137 0.0000000e+0 -0.73966853
vn 0.0000000e+0 0.89690521 0.44222284
g Cube1_Cube1_auv
usemtl Cube1_auv
s 1
f 2/3/6 4/4/14 3/2/10 1/1/2
g Cube1_default
usemtl default
s 1
f 1//4 9//35 12//44 5//20
f 5//18 7//26 8//30 6//22
f 7//27 11//40 10//38 3//12
f 14//48 15//51 16//54 13//45
s 2
f 1//1 5//17 6//21 2//5
f 2//7 14//49 13//46 4//15
f 3//11 10//37 9//34 1//3
f 4//13 8//29 7//25 3//9
f 5//19 12//43 11//41 7//28
f 8//31 16//55 15//53 6//24
s 3
f 4//16 13//47 16//56 8//32
f 6//23 15//52 14//50 2//8
f 10//36 11//39 12//42 9//33
