# Exported from Wings 3D 2.2.5
mtllib road_intersection.mtl
o road_intersection
#44 vertices, 84 faces
v -0.50000000 0.0000000e+0 0.50000000
v 0.40000000 1.0000000e-2 0.50000000
v 0.50000000 0.0000000e+0 0.50000000
v 0.50000000 2.0000000e-2 0.50000000
v 0.30000000 1.0000000e-2 0.50000000
v 0.40000000 2.0000000e-2 0.50000000
v -0.30000000 1.0000000e-2 0.50000000
v -0.40000000 1.0000000e-2 0.50000000
v -0.50000000 2.0000000e-2 0.50000000
v 1.0000010e-2 1.0000000e-2 0.50000000
v -9.9999920e-3 1.0000000e-2 0.50000000
v -0.40000000 2.0000000e-2 0.50000000
v -0.50000000 2.0000000e-2 -0.50000000
v -0.50000000 1.0000000e-2 -0.40000000
v -0.50000000 0.0000000e+0 -0.50000000
v -0.50000000 1.0000000e-2 -0.30000000
v -0.50000000 1.0000000e-2 -9.9999900e-3
v -0.50000000 1.0000000e-2 9.9999900e-3
v -0.50000000 1.0000000e-2 0.30000000
v -0.50000000 1.0000000e-2 0.40000000
v -0.50000000 2.0000000e-2 0.40000000
v -0.50000000 2.0000000e-2 -0.40000000
v 0.50000000 2.0000000e-2 -0.50000000
v 0.50000000 0.0000000e+0 -0.50000000
v 0.50000000 2.0000000e-2 -0.40000000
v 0.50000000 1.0000000e-2 -0.40000000
v 0.50000000 1.0000000e-2 -0.30000000
v 0.50000000 1.0000000e-2 -9.9999900e-3
v 0.50000000 1.0000000e-2 9.9999900e-3
v 0.50000000 1.0000000e-2 0.30000000
v 0.50000000 1.0000000e-2 0.40000000
v 0.50000000 2.0000000e-2 0.40000000
v 0.30000000 1.0000000e-2 0.30000000
v 0.30000000 1.0000000e-2 9.9999900e-3
v 0.30000000 1.0000000e-2 -9.9999900e-3
v 1.0000010e-2 1.0000000e-2 0.30000000
v -9.9999920e-3 1.0000000e-2 0.30000000
v -0.30000000 1.0000000e-2 -9.9999900e-3
v -0.30000000 1.0000000e-2 0.30000000
v -0.30000000 1.0000000e-2 9.9999900e-3
v -0.40000000 1.0000000e-2 0.40000000
v -0.40000000 2.0000000e-2 0.40000000
v 0.40000000 2.0000000e-2 0.40000000
v 0.40000000 1.0000000e-2 0.40000000
vt -19.68504000 -19.68504000
vt -19.68504000 -15.74803000
vt -19.68504000 -11.81102000
vt -19.68504000 -0.39370050
vt -19.68504000 -4.1732160e-7
vt -19.68504000 -9.4888820e-15
vt -19.68504000 0.0000000e+0
vt -19.68504000 5.0892920e-7
vt -19.68504000 0.39370080
vt -19.68504000 0.39370110
vt -19.68504000 0.78740110
vt -19.68504000 0.78740160
vt -19.68504000 0.78740210
vt -19.68504000 11.81102000
vt -19.68504000 15.74803000
vt -19.68504000 19.68504000
vt -15.74803000 0.39370040
vt -15.74803000 0.39370080
vt -15.74803000 0.39370130
vt -15.74803000 0.78740110
vt -15.74803000 0.78740160
vt -15.74803000 0.78740210
vt -15.74803000 15.74803000
vt -15.74803000 19.68504000
vt -11.81102000 -0.39370050
vt -11.81102000 0.39370040
vt -11.81102000 0.39370080
vt -11.81102000 0.39370110
vt -11.81102000 0.39370130
vt -11.81102000 11.81102000
vt -11.81102000 19.68504000
vt -0.39370110 11.81102000
vt -0.39370110 19.68504000
vt -0.39370080 0.39370130
vt -0.39370020 0.39370040
vt -0.39370020 0.39370080
vt 0.39370050 11.81102000
vt 0.39370050 19.68504000
vt 0.39370080 0.39370130
vt 0.39370140 0.39370040
vt 0.39370140 0.39370080
vt 11.81102000 -0.39370050
vt 11.81102000 0.39370040
vt 11.81102000 0.39370080
vt 11.81102000 0.39370110
vt 11.81102000 0.39370130
vt 11.81102000 11.81102000
vt 11.81102000 19.68504000
vt 15.74803000 0.39370040
vt 15.74803000 0.39370080
vt 15.74803000 0.39370130
vt 15.74803000 0.78740110
vt 15.74803000 0.78740160
vt 15.74803000 0.78740210
vt 15.74803000 15.74803000
vt 15.74803000 19.68504000
vt 19.68504000 -19.68504000
vt 19.68504000 -15.74803000
vt 19.68504000 -11.81102000
vt 19.68504000 -0.39370050
vt 19.68504000 -4.1732160e-7
vt 19.68504000 -9.4888820e-15
vt 19.68504000 0.0000000e+0
vt 19.68504000 5.0892920e-7
vt 19.68504000 0.39370080
vt 19.68504000 0.39370110
vt 19.68504000 0.78740110
vt 19.68504000 0.78740160
vt 19.68504000 0.78740210
vt 19.68504000 11.81102000
vt 19.68504000 15.74803000
vt 19.68504000 19.68504000
vn 0.0000000e+0 1.00000000 0.0000000e+0
vn 0.0000000e+0 1.00000000 0.0000000e+0
vn 0.0000000e+0 1.00000000 0.0000000e+0
vn 0.0000000e+0 1.00000000 0.0000000e+0
vn 0.0000000e+0 1.00000000 1.5698850e-17
vn 0.0000000e+0 0.0000000e+0 1.00000000
vn 0.0000000e+0 0.0000000e+0 1.00000000
vn 0.0000000e+0 0.0000000e+0 1.00000000
vn 0.0000000e+0 0.0000000e+0 1.00000000
vn 0.0000000e+0 0.0000000e+0 1.00000000
vn -1.00000000 -9.0923439e-15 0.0000000e+0
vn -1.00000000 -9.0923439e-15 0.0000000e+0
vn -1.00000000 -9.0923439e-15 0.0000000e+0
vn -1.00000000 -9.0923439e-15 0.0000000e+0
vn -1.00000000 -9.0923439e-15 0.0000000e+0
vn -1.00000000 -9.0923439e-15 0.0000000e+0
vn -1.00000000 -9.0923439e-15 0.0000000e+0
vn -1.00000000 -9.0923439e-15 0.0000000e+0
vn 0.0000000e+0 -1.00000000 0.0000000e+0
vn 0.0000000e+0 0.0000000e+0 1.00000000
vn 0.0000000e+0 0.0000000e+0 1.00000000
vn 0.0000000e+0 0.0000000e+0 1.00000000
vn 0.0000000e+0 0.0000000e+0 1.00000000
vn 0.0000000e+0 1.00000000 0.0000000e+0
vn 0.0000000e+0 1.00000000 0.0000000e+0
vn -1.00000000 0.0000000e+0 0.0000000e+0
vn -1.00000000 0.0000000e+0 0.0000000e+0
vn 0.0000000e+0 0.0000000e+0 1.00000000
vn 0.0000000e+0 0.0000000e+0 1.00000000
vn 1.00000000 -9.0923439e-15 0.0000000e+0
vn 1.00000000 -9.0923439e-15 0.0000000e+0
vn 1.00000000 -9.0923439e-15 0.0000000e+0
vn 1.00000000 -9.0923439e-15 0.0000000e+0
vn 1.00000000 -9.0923439e-15 0.0000000e+0
vn 1.00000000 -9.0923439e-15 0.0000000e+0
vn 1.00000000 -9.0923439e-15 0.0000000e+0
vn 1.00000000 -9.0923439e-15 0.0000000e+0
vn 0.0000000e+0 -1.00000000 0.0000000e+0
vn 0.0000000e+0 -1.00000000 0.0000000e+0
vn 0.0000000e+0 0.0000000e+0 1.00000000
vn 0.0000000e+0 0.0000000e+0 1.00000000
vn 1.00000000 0.0000000e+0 0.0000000e+0
vn 0.0000000e+0 1.00000000 0.0000000e+0
vn 0.0000000e+0 1.00000000 0.0000000e+0
vn 0.0000000e+0 0.0000000e+0 0.0000000e+0
vn 0.0000000e+0 0.0000000e+0 1.00000000
vn 0.0000000e+0 0.0000000e+0 1.00000000
vn 0.0000000e+0 1.00000000 0.0000000e+0
vn 0.0000000e+0 1.00000000 0.0000000e+0
vn 0.0000000e+0 1.00000000 0.0000000e+0
vn 0.0000000e+0 1.00000000 0.0000000e+0
vn 0.0000000e+0 0.0000000e+0 1.00000000
vn -1.00000000 0.0000000e+0 0.0000000e+0
vn 0.0000000e+0 1.00000000 0.0000000e+0
vn 0.0000000e+0 0.0000000e+0 0.0000000e+0
vn 0.0000000e+0 0.0000000e+0 0.0000000e+0
vn 0.0000000e+0 0.0000000e+0 1.00000000
vn 0.0000000e+0 0.0000000e+0 1.00000000
vn 0.0000000e+0 1.00000000 0.0000000e+0
vn 0.0000000e+0 0.0000000e+0 0.0000000e+0
vn 0.0000000e+0 1.00000000 0.0000000e+0
vn 0.0000000e+0 1.00000000 0.0000000e+0
vn 0.0000000e+0 0.0000000e+0 1.00000000
vn 0.0000000e+0 0.0000000e+0 1.00000000
vn 0.0000000e+0 0.0000000e+0 1.00000000
vn 0.0000000e+0 1.00000000 0.0000000e+0
vn 1.00000000 0.0000000e+0 0.0000000e+0
vn 0.0000000e+0 0.0000000e+0 1.00000000
vn 0.0000000e+0 0.0000000e+0 1.00000000
vn -1.00000000 0.0000000e+0 0.0000000e+0
vn 0.0000000e+0 1.00000000 0.0000000e+0
vn 0.0000000e+0 0.0000000e+0 0.0000000e+0
vn 0.0000000e+0 0.0000000e+0 0.0000000e+0
vn 0.0000000e+0 1.00000000 0.0000000e+0
vn 0.0000000e+0 1.00000000 0.0000000e+0
vn 0.0000000e+0 1.00000000 0.0000000e+0
vn 0.0000000e+0 0.0000000e+0 0.0000000e+0
vn 0.0000000e+0 1.00000000 0.0000000e+0
vn 0.0000000e+0 1.00000000 0.0000000e+0
vn 0.0000000e+0 1.00000000 0.0000000e+0
vn 0.0000000e+0 1.00000000 0.0000000e+0
vn 0.0000000e+0 0.0000000e+0 1.00000000
vn 1.00000000 0.0000000e+0 0.0000000e+0
vn 1.00000000 0.0000000e+0 0.0000000e+0
vn 0.0000000e+0 1.00000000 0.0000000e+0
vn 0.0000000e+0 1.00000000 0.0000000e+0
vn -1.00000000 0.0000000e+0 0.0000000e+0
vn -1.00000000 0.0000000e+0 0.0000000e+0
vn 0.0000000e+0 0.0000000e+0 -1.00000000
vn 0.0000000e+0 0.0000000e+0 -1.00000000
vn 0.0000000e+0 1.00000000 0.0000000e+0
vn 0.0000000e+0 1.00000000 0.0000000e+0
vn -1.00000000 -2.7755576e-14 0.0000000e+0
vn -1.00000000 -2.7755576e-14 0.0000000e+0
vn -1.00000000 -2.7755576e-14 0.0000000e+0
vn -1.00000000 -2.7755576e-14 0.0000000e+0
vn 0.0000000e+0 1.00000000 0.0000000e+0
vn 0.0000000e+0 1.00000000 0.0000000e+0
vn 0.0000000e+0 0.0000000e+0 1.00000000
vn 0.0000000e+0 0.0000000e+0 1.00000000
vn -1.00000000 0.0000000e+0 0.0000000e+0
vn -1.00000000 0.0000000e+0 0.0000000e+0
vn 0.0000000e+0 0.0000000e+0 -1.00000000
vn 0.0000000e+0 -1.00000000 0.0000000e+0
vn 0.0000000e+0 -1.00000000 0.0000000e+0
vn 0.0000000e+0 1.00000000 7.8494249e-18
vn 0.0000000e+0 1.00000000 7.8494249e-18
vn 0.0000000e+0 1.00000000 7.8494249e-18
vn 0.0000000e+0 1.00000000 7.8494249e-18
vn 0.0000000e+0 1.00000000 7.8494249e-18
vn 0.0000000e+0 1.00000000 7.8494249e-18
vn 0.0000000e+0 1.00000000 7.8494249e-18
vn 0.0000000e+0 1.00000000 7.8494249e-18
vn 0.0000000e+0 1.00000000 7.8494249e-18
vn -1.00000000 -3.6369376e-14 0.0000000e+0
vn -1.00000000 -3.6369376e-14 0.0000000e+0
vn 0.0000000e+0 1.00000000 7.8494249e-18
vn 0.0000000e+0 1.00000000 0.0000000e+0
vn -1.00000000 1.9141776e-14 0.0000000e+0
vn -1.00000000 1.9141776e-14 0.0000000e+0
vn 0.0000000e+0 1.00000000 0.0000000e+0
vn 0.0000000e+0 1.00000000 0.0000000e+0
vn 0.0000000e+0 1.00000000 0.0000000e+0
vn 0.0000000e+0 1.00000000 0.0000000e+0
vn -1.00000000 0.0000000e+0 0.0000000e+0
vn -1.00000000 0.0000000e+0 0.0000000e+0
vn 0.0000000e+0 1.00000000 0.0000000e+0
vn 0.0000000e+0 1.00000000 0.0000000e+0
vn -1.00000000 0.0000000e+0 0.0000000e+0
vn -1.00000000 0.0000000e+0 0.0000000e+0
vn 0.0000000e+0 0.0000000e+0 0.0000000e+0
vn 0.0000000e+0 1.00000000 0.0000000e+0
vn 0.0000000e+0 1.00000000 0.0000000e+0
vn -1.00000000 0.0000000e+0 0.0000000e+0
vn -1.00000000 0.0000000e+0 0.0000000e+0
vn 0.0000000e+0 1.00000000 0.0000000e+0
vn 0.0000000e+0 0.0000000e+0 -1.00000000
vn -1.00000000 0.0000000e+0 0.0000000e+0
vn -1.00000000 0.0000000e+0 0.0000000e+0
vn 0.0000000e+0 1.00000000 0.0000000e+0
vn 0.0000000e+0 1.00000000 0.0000000e+0
vn 0.0000000e+0 0.0000000e+0 -1.00000000
vn 0.0000000e+0 0.0000000e+0 -1.00000000
vn -1.00000000 0.0000000e+0 0.0000000e+0
vn 0.0000000e+0 0.0000000e+0 1.00000000
vn 0.0000000e+0 1.00000000 0.0000000e+0
vn 1.00000000 0.0000000e+0 0.0000000e+0
vn 0.0000000e+0 0.0000000e+0 -1.00000000
vn 0.0000000e+0 1.00000000 0.0000000e+0
vn 1.00000000 0.0000000e+0 0.0000000e+0
vn 1.00000000 0.0000000e+0 0.0000000e+0
vn 1.00000000 0.0000000e+0 0.0000000e+0
vn 0.0000000e+0 0.0000000e+0 -1.00000000
vn 0.0000000e+0 0.0000000e+0 -1.00000000
vn 0.0000000e+0 -1.00000000 0.0000000e+0
vn 1.00000000 0.0000000e+0 0.0000000e+0
vn 1.00000000 0.0000000e+0 0.0000000e+0
vn 0.0000000e+0 0.0000000e+0 1.00000000
vn 0.0000000e+0 0.0000000e+0 1.00000000
vn 0.0000000e+0 1.00000000 0.0000000e+0
vn 0.0000000e+0 1.00000000 0.0000000e+0
vn 1.00000000 -3.7007434e-14 0.0000000e+0
vn 1.00000000 -3.7007434e-14 0.0000000e+0
vn 1.00000000 -3.7007434e-14 0.0000000e+0
vn 0.0000000e+0 1.00000000 0.0000000e+0
vn 0.0000000e+0 0.0000000e+0 1.00000000
vn 0.0000000e+0 1.00000000 0.0000000e+0
vn 1.00000000 -3.6369376e-14 0.0000000e+0
vn 1.00000000 -3.6369376e-14 0.0000000e+0
vn 0.0000000e+0 1.00000000 0.0000000e+0
vn 0.0000000e+0 1.00000000 0.0000000e+0
vn 0.0000000e+0 1.00000000 0.0000000e+0
vn 0.0000000e+0 1.00000000 0.0000000e+0
vn 1.00000000 1.9141776e-14 0.0000000e+0
vn 1.00000000 1.9141776e-14 0.0000000e+0
vn 0.0000000e+0 1.00000000 0.0000000e+0
vn 0.0000000e+0 1.00000000 0.0000000e+0
vn 0.0000000e+0 1.00000000 0.0000000e+0
vn 1.00000000 0.0000000e+0 0.0000000e+0
vn 1.00000000 0.0000000e+0 0.0000000e+0
vn 0.0000000e+0 1.00000000 0.0000000e+0
vn 0.0000000e+0 1.00000000 0.0000000e+0
vn 0.0000000e+0 1.00000000 0.0000000e+0
vn 1.00000000 0.0000000e+0 0.0000000e+0
vn 1.00000000 0.0000000e+0 0.0000000e+0
vn 0.0000000e+0 1.00000000 0.0000000e+0
vn 1.00000000 0.0000000e+0 0.0000000e+0
vn 1.00000000 0.0000000e+0 0.0000000e+0
vn 0.0000000e+0 1.00000000 0.0000000e+0
vn 0.0000000e+0 1.00000000 0.0000000e+0
vn 0.0000000e+0 0.0000000e+0 -1.00000000
vn 0.0000000e+0 0.0000000e+0 -1.00000000
vn 1.00000000 0.0000000e+0 0.0000000e+0
vn 1.00000000 0.0000000e+0 0.0000000e+0
vn 0.0000000e+0 0.0000000e+0 -1.00000000
vn 0.0000000e+0 1.00000000 0.0000000e+0
vn 0.0000000e+0 0.0000000e+0 0.0000000e+0
vn 0.0000000e+0 1.00000000 1.5698850e-17
vn 0.0000000e+0 1.00000000 1.5698850e-17
vn 0.0000000e+0 1.00000000 1.5698850e-17
vn 0.0000000e+0 1.00000000 1.5698850e-17
vn 0.0000000e+0 1.00000000 1.5698850e-17
vn 0.0000000e+0 0.0000000e+0 0.0000000e+0
vn 0.0000000e+0 1.00000000 0.0000000e+0
vn 0.0000000e+0 1.00000000 0.0000000e+0
vn 0.0000000e+0 1.00000000 0.0000000e+0
vn 0.0000000e+0 1.00000000 0.0000000e+0
vn 0.0000000e+0 1.00000000 0.0000000e+0
vn 0.0000000e+0 0.0000000e+0 0.0000000e+0
vn 0.0000000e+0 1.00000000 0.0000000e+0
vn 0.0000000e+0 1.00000000 0.0000000e+0
vn 0.0000000e+0 1.00000000 0.0000000e+0
vn 0.0000000e+0 0.0000000e+0 0.0000000e+0
vn 0.0000000e+0 1.00000000 0.0000000e+0
vn 0.0000000e+0 1.00000000 0.0000000e+0
vn 1.00000000 0.0000000e+0 0.0000000e+0
vn 1.00000000 0.0000000e+0 0.0000000e+0
vn 0.0000000e+0 0.0000000e+0 -1.00000000
vn 0.0000000e+0 0.0000000e+0 -1.00000000
vn 1.00000000 0.0000000e+0 0.0000000e+0
vn 0.0000000e+0 1.00000000 0.0000000e+0
vn 0.0000000e+0 0.0000000e+0 -1.00000000
vn -1.00000000 0.0000000e+0 0.0000000e+0
vn -1.00000000 0.0000000e+0 0.0000000e+0
vn 0.0000000e+0 0.0000000e+0 -1.00000000
vn 0.0000000e+0 0.0000000e+0 -1.00000000
vn 0.0000000e+0 1.00000000 0.0000000e+0
vn 0.0000000e+0 1.00000000 0.0000000e+0
vn 0.0000000e+0 1.00000000 0.0000000e+0
vn 0.0000000e+0 1.00000000 0.0000000e+0
vn -1.00000000 0.0000000e+0 0.0000000e+0
vn 0.0000000e+0 0.0000000e+0 -1.00000000
g road_intersection_asphalt
usemtl asphalt
s 1
f 5/43/45 10/40/72 7/26/55
f 10/40/73 11/35/77 7/26/56
f 38/42/197 40/45/209 39/47/203
s 2
f 1/16/19 15/1/104 3/72/38
f 15/1/105 24/57/155 3/72/39
s 3
f 1/62/11 16/27/115 14/18/93
f 1/62/12 17/36/119 16/27/116
f 1/62/13 18/41/125 17/36/120
f 1/62/14 19/44/129 18/41/126
f 1/62/15 20/50/134 19/44/130
f 1/62/16 21/53/138 20/50/135
f 9/68/70 21/53/139 1/62/17
f 13/12/87 15/6/101 14/18/94
f 14/18/95 15/6/102 1/62/18
f 14/18/96 22/21/144 13/12/88
s 4
f 3/8/30 32/22/193 4/13/42
f 23/69/147 25/54/156 24/64/150
f 24/64/151 26/51/162 3/8/31
f 25/54/157 26/51/163 24/64/152
f 26/51/164 27/46/168 3/8/32
f 27/46/169 28/39/174 3/8/33
f 28/39/175 29/34/179 3/8/34
f 29/34/180 30/29/184 3/8/35
f 30/29/185 31/19/187 3/8/36
f 31/19/188 32/22/194 3/8/37
s 5
f 1/5/6 3/61/28 2/49/20
f 2/49/21 5/43/46 1/5/7
f 3/61/29 4/67/40 2/49/22
f 4/67/41 6/52/52 2/49/23
f 5/43/47 7/26/57 1/5/8
f 7/26/58 8/17/63 1/5/9
f 8/17/64 9/11/68 1/5/10
f 8/17/65 12/20/82 9/11/69
s 6
f 5/31/48 33/30/1 16/59/106
f 5/31/49 36/32/4 10/33/74
f 10/33/75 37/37/5 11/38/81
f 11/38/78 39/47/204 7/48/59
f 16/59/107 28/4/172 27/3/167
f 16/59/108 35/25/3 28/4/173
f 16/59/109 36/32/4 5/31/50
f 16/59/110 37/37/5 36/32/4
f 16/59/111 38/42/198 37/37/5
f 17/60/118 38/42/199 16/59/112
f 17/60/121 40/45/211 38/42/202
f 18/66/127 40/45/212 17/60/122
f 19/70/128 39/47/205 18/66/123
f 28/4/176 35/25/3 29/10/181
f 29/10/177 33/30/1 30/14/183
f 29/10/178 34/28/2 33/30/1
f 29/10/182 35/25/3 34/28/2
f 33/30/1 34/28/2 16/59/113
f 34/28/2 35/25/3 16/59/114
f 36/32/4 37/37/5 10/33/76
f 37/37/5 38/42/200 11/38/79
f 38/42/201 39/47/206 11/38/80
f 39/47/207 40/45/210 18/66/124
g road_intersection_asphaltEdge
usemtl asphaltEdge
s 1
f 19/70/131 41/55/213 7/48/60
s 2
f 7/48/61 41/55/214 8/56/66
f 20/71/136 41/55/215 19/70/132
s 6
f 2/24/24 33/30/1 5/31/51
f 2/24/25 44/23/229 33/30/1
f 7/48/62 39/47/208 19/70/133
f 14/58/97 27/3/170 26/2/165
f 16/59/117 27/3/171 14/58/98
f 30/14/186 33/30/1 31/15/189
f 33/30/1 44/23/230 31/15/190
g road_intersection_pavement
usemtl pavement
s 1
f 6/68/53 43/53/223 2/65/26
f 8/9/67 41/18/216 12/12/83
f 13/68/89 24/7/153 15/63/103
f 14/9/99 25/68/158 22/12/145
f 14/9/100 26/65/166 25/68/159
f 23/12/148 24/7/154 13/68/90
f 41/18/217 42/21/220 12/12/84
f 43/53/224 44/50/231 2/65/27
s 2
f 12/56/85 21/71/140 9/72/71
f 12/56/86 42/55/221 21/71/141
f 13/57/91 25/2/160 23/1/149
f 22/58/146 25/2/161 13/57/92
f 31/9/191 43/21/225 32/12/195
f 31/9/192 44/18/232 43/21/226
s 3
f 4/16/43 43/23/227 6/24/54
f 32/15/196 43/23/228 4/16/44
s 4
f 21/68/142 41/50/218 20/65/137
f 21/68/143 42/53/222 41/50/219
