# Exported from Wings 3D 2.2.5
mtllib road_bendSquare.mtl
o road_bendSquare
#32 vertices, 60 faces
v 0.50000000 0.0000000e+0 0.50000000
v 0.50000000 0.0000000e+0 -0.50000000
v -0.50000000 0.0000000e+0 0.50000000
v -0.50000000 0.0000000e+0 -0.50000000
v 0.50000000 2.0000000e-2 -0.50000000
v 0.50000000 2.0000000e-2 0.50000000
v -0.50000000 2.0000000e-2 -0.50000000
v -0.40000000 2.0000000e-2 0.40000000
v -0.40000000 2.0000000e-2 0.50000000
v -0.50000000 2.0000000e-2 0.40000000
v -0.50000000 2.0000000e-2 0.50000000
v -0.40000000 1.0000000e-2 0.40000000
v -0.40000000 1.0000000e-2 0.50000000
v -0.50000000 1.0000000e-2 0.40000000
v 0.40000000 2.0000000e-2 -0.40000000
v -0.50000000 2.0000000e-2 -0.40000000
v 0.40000000 2.0000000e-2 0.50000000
v 0.40000000 1.0000000e-2 -0.40000000
v -0.50000000 1.0000000e-2 -0.40000000
v 0.40000000 1.0000000e-2 0.50000000
v -0.50000000 1.0000000e-2 -0.30000000
v -0.50000000 1.0000000e-2 -9.9999900e-3
v -0.50000000 1.0000000e-2 9.9999900e-3
v -0.50000000 1.0000000e-2 0.30000000
v 0.30000000 1.0000000e-2 0.50000000
v 1.0000000e-2 1.0000000e-2 0.50000000
v -1.0000000e-2 1.0000000e-2 0.50000000
v -0.30000000 1.0000000e-2 0.50000000
v -1.0000000e-2 1.0000000e-2 9.9999900e-3
v -0.30000000 1.0000000e-2 0.30000000
v 1.0000000e-2 1.0000000e-2 -9.9999900e-3
v 0.30000000 1.0000000e-2 -0.30000000
vt -19.68504000 -19.68504000
vt -19.68504000 -2.7256150e-11
vt -19.68504000 -1.9724850e-13
vt -19.68504000 0.0000000e+0
vt -19.68504000 0.39370080
vt -19.68504000 0.78740160
vt -19.68504000 19.68504000
vt -15.74803000 -15.74803000
vt -15.74803000 0.39370080
vt -15.74803000 0.78740160
vt -15.74803000 19.68504000
vt -11.81102000 -11.81102000
vt -11.81102000 0.39370080
vt -11.81102000 19.68504000
vt -0.39370080 -0.39370080
vt -0.39370080 0.39370080
vt -0.39370080 19.68504000
vt 0.39370080 0.39370080
vt 0.39370080 19.68504000
vt 11.81102000 0.39370080
vt 11.81102000 11.81102000
vt 11.81102000 19.68504000
vt 15.74803000 0.39370080
vt 15.74803000 0.78740160
vt 15.74803000 15.74803000
vt 15.74803000 19.68504000
vt 19.68504000 -19.68504000
vt 19.68504000 -15.74803000
vt 19.68504000 -11.81102000
vt 19.68504000 -0.39370080
vt 19.68504000 -2.7256150e-11
vt 19.68504000 -1.9724850e-13
vt 19.68504000 0.0000000e+0
vt 19.68504000 0.39370080
vt 19.68504000 0.78740160
vt 19.68504000 11.81102000
vt 19.68504000 15.74803000
vt 19.68504000 19.68504000
vn 0.0000000e+0 1.00000000 3.4014220e-17
vn 0.0000000e+0 1.00000000 0.0000000e+0
vn 0.0000000e+0 1.00000000 2.8345183e-17
vn 0.0000000e+0 1.00000000 0.0000000e+0
vn 0.0000000e+0 0.0000000e+0 1.00000000
vn 0.0000000e+0 0.0000000e+0 1.00000000
vn 1.00000000 0.0000000e+0 0.0000000e+0
vn 0.0000000e+0 -1.00000000 0.0000000e+0
vn 0.0000000e+0 0.0000000e+0 -1.00000000
vn 0.0000000e+0 0.0000000e+0 -1.00000000
vn 1.00000000 0.0000000e+0 0.0000000e+0
vn 1.00000000 0.0000000e+0 0.0000000e+0
vn 0.0000000e+0 -1.00000000 0.0000000e+0
vn 0.0000000e+0 -1.00000000 0.0000000e+0
vn 0.0000000e+0 0.0000000e+0 1.00000000
vn 0.0000000e+0 0.0000000e+0 1.00000000
vn 0.0000000e+0 0.0000000e+0 1.00000000
vn -1.00000000 -9.0923439e-15 0.0000000e+0
vn -1.00000000 -9.0923439e-15 0.0000000e+0
vn -1.00000000 -9.0923439e-15 0.0000000e+0
vn -1.00000000 -9.0923439e-15 0.0000000e+0
vn -1.00000000 -9.0923439e-15 0.0000000e+0
vn -1.00000000 -9.0923439e-15 0.0000000e+0
vn -1.00000000 -9.0923439e-15 0.0000000e+0
vn -1.00000000 -9.0923439e-15 0.0000000e+0
vn 0.0000000e+0 -1.00000000 0.0000000e+0
vn 0.0000000e+0 -1.00000000 0.0000000e+0
vn -1.00000000 0.0000000e+0 0.0000000e+0
vn -1.00000000 0.0000000e+0 0.0000000e+0
vn 0.0000000e+0 0.0000000e+0 -1.00000000
vn 0.0000000e+0 -1.00000000 0.0000000e+0
vn 0.0000000e+0 0.0000000e+0 -1.00000000
vn 1.00000000 0.0000000e+0 0.0000000e+0
vn 0.0000000e+0 1.00000000 0.0000000e+0
vn 0.0000000e+0 1.00000000 0.0000000e+0
vn 0.0000000e+0 0.0000000e+0 1.00000000
vn 0.0000000e+0 0.0000000e+0 1.00000000
vn 1.00000000 0.0000000e+0 0.0000000e+0
vn 1.00000000 0.0000000e+0 0.0000000e+0
vn 0.0000000e+0 1.00000000 0.0000000e+0
vn 0.0000000e+0 1.00000000 0.0000000e+0
vn -1.00000000 0.0000000e+0 0.0000000e+0
vn -1.00000000 0.0000000e+0 0.0000000e+0
vn 0.0000000e+0 0.0000000e+0 -1.00000000
vn 0.0000000e+0 0.0000000e+0 -1.00000000
vn 0.0000000e+0 1.00000000 0.0000000e+0
vn 0.0000000e+0 1.00000000 0.0000000e+0
vn 0.0000000e+0 1.00000000 0.0000000e+0
vn 0.0000000e+0 0.0000000e+0 -1.00000000
vn 1.00000000 0.0000000e+0 0.0000000e+0
vn 0.0000000e+0 0.0000000e+0 1.00000000
vn 0.0000000e+0 1.00000000 0.0000000e+0
vn 0.0000000e+0 1.00000000 0.0000000e+0
vn 1.00000000 0.0000000e+0 0.0000000e+0
vn 1.00000000 0.0000000e+0 0.0000000e+0
vn -1.00000000 0.0000000e+0 0.0000000e+0
vn -1.00000000 0.0000000e+0 0.0000000e+0
vn 0.0000000e+0 1.00000000 0.0000000e+0
vn 0.0000000e+0 1.00000000 0.0000000e+0
vn 0.0000000e+0 0.0000000e+0 -1.00000000
vn 0.0000000e+0 0.0000000e+0 -1.00000000
vn 0.0000000e+0 0.0000000e+0 1.00000000
vn 0.0000000e+0 0.0000000e+0 1.00000000
vn -1.00000000 0.0000000e+0 0.0000000e+0
vn 0.0000000e+0 1.00000000 0.0000000e+0
vn 0.0000000e+0 1.00000000 0.0000000e+0
vn 0.0000000e+0 1.00000000 0.0000000e+0
vn 0.0000000e+0 0.0000000e+0 0.0000000e+0
vn 0.0000000e+0 0.0000000e+0 -1.00000000
vn 0.0000000e+0 0.0000000e+0 -1.00000000
vn 1.00000000 0.0000000e+0 0.0000000e+0
vn 1.00000000 0.0000000e+0 0.0000000e+0
vn 0.0000000e+0 0.0000000e+0 0.0000000e+0
vn 0.0000000e+0 0.0000000e+0 0.0000000e+0
vn 0.0000000e+0 0.0000000e+0 0.0000000e+0
vn 0.0000000e+0 0.0000000e+0 0.0000000e+0
vn 0.0000000e+0 0.0000000e+0 1.00000000
vn 0.0000000e+0 0.0000000e+0 1.00000000
vn 0.0000000e+0 0.0000000e+0 1.00000000
vn 0.0000000e+0 1.00000000 0.0000000e+0
vn 1.00000000 0.0000000e+0 0.0000000e+0
vn -1.00000000 0.0000000e+0 0.0000000e+0
vn -1.00000000 0.0000000e+0 0.0000000e+0
vn 0.0000000e+0 1.00000000 0.0000000e+0
vn 0.0000000e+0 0.0000000e+0 -1.00000000
vn -1.00000000 0.0000000e+0 0.0000000e+0
vn -1.00000000 0.0000000e+0 0.0000000e+0
vn 0.0000000e+0 0.0000000e+0 1.00000000
vn 0.0000000e+0 0.0000000e+0 1.00000000
vn 0.0000000e+0 1.00000000 0.0000000e+0
vn 0.0000000e+0 1.00000000 0.0000000e+0
vn 0.0000000e+0 1.00000000 0.0000000e+0
vn 0.0000000e+0 1.00000000 0.0000000e+0
vn -1.00000000 0.0000000e+0 0.0000000e+0
vn 0.0000000e+0 0.0000000e+0 1.00000000
vn 0.0000000e+0 1.00000000 0.0000000e+0
vn 0.0000000e+0 0.0000000e+0 1.00000000
vn -1.00000000 0.0000000e+0 0.0000000e+0
vn 0.0000000e+0 1.00000000 0.0000000e+0
vn 0.0000000e+0 1.00000000 0.0000000e+0
vn 0.0000000e+0 1.00000000 0.0000000e+0
vn -1.00000000 0.0000000e+0 0.0000000e+0
vn 0.0000000e+0 0.0000000e+0 1.00000000
vn -1.00000000 -2.7755576e-14 0.0000000e+0
vn -1.00000000 -2.7755576e-14 0.0000000e+0
vn -1.00000000 -2.7755576e-14 0.0000000e+0
vn -1.00000000 -2.7755576e-14 0.0000000e+0
vn 0.0000000e+0 1.00000000 0.0000000e+0
vn 0.0000000e+0 1.00000000 0.0000000e+0
vn 0.0000000e+0 0.0000000e+0 1.00000000
vn 0.0000000e+0 0.0000000e+0 1.00000000
vn 0.0000000e+0 0.0000000e+0 0.0000000e+0
vn 0.0000000e+0 0.0000000e+0 1.00000000
vn 0.0000000e+0 0.0000000e+0 1.00000000
vn 0.0000000e+0 0.0000000e+0 1.00000000
vn 0.0000000e+0 0.0000000e+0 1.00000000
vn 0.0000000e+0 1.00000000 0.0000000e+0
vn 0.0000000e+0 1.00000000 0.0000000e+0
vn -1.00000000 0.0000000e+0 0.0000000e+0
vn -1.00000000 0.0000000e+0 0.0000000e+0
vn 0.0000000e+0 1.00000000 0.0000000e+0
vn 0.0000000e+0 1.00000000 0.0000000e+0
vn -1.00000000 -3.6369376e-14 0.0000000e+0
vn -1.00000000 -3.6369376e-14 0.0000000e+0
vn 0.0000000e+0 1.00000000 0.0000000e+0
vn 0.0000000e+0 1.00000000 5.6690366e-17
vn -1.00000000 1.9141776e-14 0.0000000e+0
vn -1.00000000 1.9141776e-14 0.0000000e+0
vn 0.0000000e+0 1.00000000 5.6690366e-17
vn 0.0000000e+0 1.00000000 5.6690366e-17
vn 0.0000000e+0 1.00000000 0.0000000e+0
vn 0.0000000e+0 1.00000000 0.0000000e+0
vn 0.0000000e+0 1.00000000 0.0000000e+0
vn -1.00000000 0.0000000e+0 0.0000000e+0
vn -1.00000000 0.0000000e+0 0.0000000e+0
vn 0.0000000e+0 1.00000000 0.0000000e+0
vn 0.0000000e+0 1.00000000 0.0000000e+0
vn -1.00000000 0.0000000e+0 0.0000000e+0
vn -1.00000000 0.0000000e+0 0.0000000e+0
vn 0.0000000e+0 1.00000000 0.0000000e+0
vn 0.0000000e+0 0.0000000e+0 0.0000000e+0
vn 0.0000000e+0 1.00000000 0.0000000e+0
vn 0.0000000e+0 0.0000000e+0 0.0000000e+0
vn 0.0000000e+0 0.0000000e+0 0.0000000e+0
vn 0.0000000e+0 1.00000000 0.0000000e+0
vn 0.0000000e+0 1.00000000 0.0000000e+0
vn 0.0000000e+0 1.00000000 0.0000000e+0
vn 0.0000000e+0 0.0000000e+0 0.0000000e+0
vn 0.0000000e+0 0.0000000e+0 0.0000000e+0
vn 0.0000000e+0 1.00000000 0.0000000e+0
vn 0.0000000e+0 1.00000000 0.0000000e+0
vn 0.0000000e+0 1.00000000 0.0000000e+0
vn 0.0000000e+0 0.0000000e+0 0.0000000e+0
vn 0.0000000e+0 0.0000000e+0 0.0000000e+0
vn 0.0000000e+0 1.00000000 0.0000000e+0
vn 0.0000000e+0 1.00000000 0.0000000e+0
vn 0.0000000e+0 1.00000000 0.0000000e+0
vn 0.0000000e+0 1.00000000 0.0000000e+0
vn 0.0000000e+0 0.0000000e+0 0.0000000e+0
vn 0.0000000e+0 1.00000000 0.0000000e+0
vn 0.0000000e+0 1.00000000 0.0000000e+0
vn 0.0000000e+0 0.0000000e+0 0.0000000e+0
vn 0.0000000e+0 1.00000000 0.0000000e+0
g road_bendSquare_asphalt
usemtl asphalt
s 1
f 1/38/8 3/7/26 2/27/13
f 3/7/27 4/1/31 2/27/14
f 20/23/112 25/20/143 13/9/73
f 25/20/144 26/18/148 13/9/74
f 26/18/149 27/16/153 13/9/75
f 27/16/154 28/13/159 13/9/76
s 3
f 3/32/18 11/35/64 10/24/56
f 3/32/19 19/9/104 4/3/28
f 3/32/20 21/13/123 19/9/105
f 3/32/21 22/16/127 21/13/124
f 3/32/22 23/18/134 22/16/128
f 3/32/23 24/20/138 23/18/135
f 4/3/29 19/9/106 7/6/42
f 7/6/43 19/9/107 16/10/94
f 10/24/57 14/23/82 3/32/24
f 14/23/83 24/20/139 3/32/25
s 4
f 22/30/126 31/15/3 21/29/121
f 23/34/136 29/18/1 22/30/129
f 23/34/131 30/21/2 27/19/155
f 24/36/137 30/21/2 23/34/132
f 25/14/145 31/15/3 26/17/150
f 25/14/146 32/12/4 31/15/3
f 26/17/151 29/18/1 27/19/158
f 26/17/152 31/15/3 29/18/1
f 27/19/156 29/18/1 23/34/133
f 27/19/157 30/21/2 28/22/160
f 29/18/1 31/15/3 22/30/130
f 31/15/3 32/12/4 21/29/122
s 5
f 1/31/5 20/23/113 3/2/15
f 3/2/16 13/9/77 11/6/62
f 3/2/17 20/23/114 13/9/78
f 6/35/36 20/23/115 1/31/6
f 11/6/63 13/9/79 9/10/51
f 17/24/97 20/23/116 6/35/37
g road_bendSquare_asphaltEdge
usemtl asphaltEdge
s 1
f 12/25/68 28/22/162 24/36/141
s 2
f 12/25/66 24/36/140 14/37/84
f 13/26/80 28/22/161 12/25/67
s 4
f 18/8/100 32/12/4 20/11/117
f 19/28/108 32/12/4 18/8/101
f 20/11/118 32/12/4 25/14/147
f 21/29/125 32/12/4 19/28/109
f 28/22/163 30/21/2 24/36/142
g road_bendSquare_pavement
usemtl pavement
s 1
f 8/24/49 12/23/69 10/35/60
f 12/23/70 14/34/85 10/35/61
f 15/24/88 19/5/110 18/23/103
f 16/6/95 19/5/111 15/24/89
s 2
f 2/4/9 7/35/44 5/6/32
f 4/33/30 7/35/45 2/4/10
f 8/25/48 10/37/58 9/26/52
f 10/37/59 11/38/65 9/26/53
f 15/10/86 20/34/119 17/35/98
f 18/9/102 20/34/120 15/10/87
s 3
f 2/33/11 6/6/38 1/4/7
f 5/35/33 6/6/39 2/33/12
f 9/6/54 12/9/71 8/10/50
f 9/6/55 13/5/81 12/9/72
s 4
f 5/1/34 15/8/90 6/7/40
f 7/27/46 15/8/91 5/1/35
f 7/27/47 16/28/96 15/8/92
f 15/8/93 17/11/99 6/7/41
