# Exported from Wings 3D 2.2.5
mtllib road_normal.mtl
o road_crossing
#54 vertices, 104 faces
v 0.50000000 1.0000000e-2 -9.9999900e-3
v 0.50000000 1.0000000e-2 9.9999900e-3
v 0.22485510 1.0000000e-2 -9.9999900e-3
v 0.22485510 1.0000000e-2 9.9999900e-3
v -0.22485510 1.0000000e-2 -9.9999900e-3
v -0.22485510 1.0000000e-2 9.9999900e-3
v -0.50000000 1.0000000e-2 -9.9999900e-3
v -0.50000000 1.0000000e-2 9.9999900e-3
v 0.16485510 1.0000000e-2 -0.30000000
v 0.16485510 1.0000000e-2 -0.25000000
v 0.14485510 1.0000000e-2 -0.30000000
v 0.16485510 1.0000000e-2 -0.15000000
v 0.16485510 1.0000000e-2 -5.0000010e-2
v 0.16485510 1.0000000e-2 5.0000010e-2
v 0.16485510 1.0000000e-2 0.15000000
v 0.16485510 1.0000000e-2 0.25000000
v 0.16485510 1.0000000e-2 0.30000000
v 0.14485510 1.0000000e-2 0.30000000
v -0.14485510 1.0000000e-2 -0.30000000
v -0.14485510 1.0000000e-2 0.30000000
v -0.16485510 1.0000000e-2 -0.30000000
v -0.16485510 1.0000000e-2 0.30000000
v 0.12485510 1.0000000e-2 -0.25000000
v 0.12485510 1.0000000e-2 -0.15000000
v -0.12485510 1.0000000e-2 -0.25000000
v -0.12485510 1.0000000e-2 -0.15000000
v 0.12485510 1.0000000e-2 -5.0000010e-2
v 0.12485510 1.0000000e-2 5.0000010e-2
v -0.12485510 1.0000000e-2 -5.0000010e-2
v -0.12485510 1.0000000e-2 5.0000010e-2
v 0.12485510 1.0000000e-2 0.15000000
v 0.12485510 1.0000000e-2 0.25000000
v -0.12485510 1.0000000e-2 0.15000000
v -0.12485510 1.0000000e-2 0.25000000
v 0.50000000 0.0000000e+0 0.50000000
v -0.50000000 0.0000000e+0 0.50000000
v 0.50000000 2.0000000e-2 0.50000000
v -0.50000000 2.0000000e-2 0.50000000
v -0.50000000 1.0000000e-2 0.40000000
v 0.50000000 1.0000000e-2 0.40000000
v -0.50000000 2.0000000e-2 0.40000000
v 0.50000000 2.0000000e-2 0.40000000
v 0.50000000 1.0000000e-2 -0.40000000
v -0.50000000 1.0000000e-2 -0.40000000
v 0.50000000 2.0000000e-2 -0.40000000
v -0.50000000 2.0000000e-2 -0.40000000
v 0.50000000 0.0000000e+0 -0.50000000
v -0.50000000 0.0000000e+0 -0.50000000
v 0.50000000 2.0000000e-2 -0.50000000
v -0.50000000 2.0000000e-2 -0.50000000
v 0.50000000 1.0000000e-2 0.30000000
v 0.50000000 1.0000000e-2 -0.30000000
v -0.50000000 1.0000000e-2 -0.30000000
v -0.50000000 1.0000000e-2 0.30000000
vt -19.68504000 -19.68504000
vt -19.68504000 -15.74803000
vt -19.68504000 -11.81102000
vt -19.68504000 -0.39370080
vt -19.68504000 -2.3423260e-13
vt -19.68504000 0.0000000e+0
vt -19.68504000 1.7259240e-13
vt -19.68504000 0.39370080
vt -19.68504000 0.78740160
vt -19.68504000 11.81102000
vt -19.68504000 15.74803000
vt -19.68504000 19.68504000
vt -15.74803000 0.39370080
vt -15.74803000 0.78740160
vt -11.81102000 0.39370080
vt -8.85256300 -0.39370080
vt -8.85256300 0.39370080
vt -6.49035800 -11.81102000
vt -6.49035800 -9.84252000
vt -6.49035800 -5.90551200
vt -6.49035800 -1.96850400
vt -6.49035800 1.96850400
vt -6.49035800 5.90551200
vt -6.49035800 9.84252000
vt -6.49035800 11.81102000
vt -5.70295700 -11.81102000
vt -5.70295700 11.81102000
vt -4.91555500 -9.84252000
vt -4.91555500 -5.90551200
vt -4.91555500 -1.96850400
vt -4.91555500 1.96850400
vt -4.91555500 5.90551200
vt -4.91555500 9.84252000
vt -0.39370080 0.39370080
vt 0.39370080 0.39370080
vt 4.91555500 -9.84252000
vt 4.91555500 -5.90551200
vt 4.91555500 -1.96850400
vt 4.91555500 1.96850400
vt 4.91555500 5.90551200
vt 4.91555500 9.84252000
vt 5.70295700 -11.81102000
vt 5.70295700 11.81102000
vt 6.49035800 -11.81102000
vt 6.49035800 11.81102000
vt 8.85256300 -0.39370080
vt 8.85256300 0.39370080
vt 11.81102000 0.39370080
vt 15.74803000 0.39370080
vt 15.74803000 0.78740160
vt 19.68504000 -19.68504000
vt 19.68504000 -15.74803000
vt 19.68504000 -11.81102000
vt 19.68504000 -0.39370080
vt 19.68504000 -2.3423260e-13
vt 19.68504000 0.0000000e+0
vt 19.68504000 1.7259240e-13
vt 19.68504000 0.39370080
vt 19.68504000 0.78740160
vt 19.68504000 11.81102000
vt 19.68504000 15.74803000
vt 19.68504000 19.68504000
vn 0.0000000e+0 1.00000000 -2.7175703e-18
vn 0.0000000e+0 1.00000000 2.1740562e-18
vn 0.0000000e+0 1.00000000 -2.2310517e-18
vn 0.0000000e+0 1.00000000 2.2310517e-18
vn 0.0000000e+0 1.00000000 2.6868897e-17
vn 0.0000000e+0 1.00000000 -4.2686928e-17
vn 0.0000000e+0 1.00000000 -5.3737794e-17
vn 0.0000000e+0 1.00000000 -1.0114010e-17
vn 0.0000000e+0 1.00000000 1.5893444e-17
vn 0.0000000e+0 1.00000000 -1.5411737e-17
vn 0.0000000e+0 1.00000000 1.5411737e-17
vn 0.0000000e+0 1.00000000 0.0000000e+0
vn 0.0000000e+0 1.00000000 0.0000000e+0
vn 0.0000000e+0 1.00000000 0.0000000e+0
vn 0.0000000e+0 1.00000000 0.0000000e+0
vn 0.0000000e+0 1.00000000 0.0000000e+0
vn 0.0000000e+0 1.00000000 0.0000000e+0
vn 1.00000000 -5.0247233e-14 0.0000000e+0
vn 1.00000000 -5.0247233e-14 0.0000000e+0
vn 0.0000000e+0 1.00000000 -3.6234271e-18
vn 0.0000000e+0 1.00000000 -3.6234271e-18
vn 0.0000000e+0 1.00000000 -3.6234271e-18
vn 1.00000000 -6.9389008e-14 0.0000000e+0
vn 1.00000000 -6.9389008e-14 0.0000000e+0
vn 0.0000000e+0 1.00000000 2.7175703e-18
vn 0.0000000e+0 1.00000000 2.7175703e-18
vn 0.0000000e+0 1.00000000 2.7175703e-18
vn 0.0000000e+0 1.00000000 2.7175703e-18
vn -1.00000000 -5.0247233e-14 0.0000000e+0
vn -1.00000000 -5.0247233e-14 0.0000000e+0
vn 0.0000000e+0 1.00000000 0.0000000e+0
vn 0.0000000e+0 1.00000000 0.0000000e+0
vn 0.0000000e+0 1.00000000 0.0000000e+0
vn -1.00000000 -6.9389008e-14 0.0000000e+0
vn -1.00000000 -6.9389008e-14 0.0000000e+0
vn 0.0000000e+0 1.00000000 0.0000000e+0
vn 0.0000000e+0 1.00000000 0.0000000e+0
vn 0.0000000e+0 0.0000000e+0 0.0000000e+0
vn 0.0000000e+0 1.00000000 4.8785061e-17
vn 0.0000000e+0 1.00000000 4.8785061e-17
vn 0.0000000e+0 1.00000000 4.8785061e-17
vn 0.0000000e+0 1.00000000 4.8785061e-17
vn 0.0000000e+0 1.00000000 4.8785061e-17
vn 0.0000000e+0 1.00000000 4.8785061e-17
vn 0.0000000e+0 1.00000000 4.8785061e-17
vn 0.0000000e+0 0.0000000e+0 0.0000000e+0
vn 0.0000000e+0 0.0000000e+0 0.0000000e+0
vn 0.0000000e+0 1.00000000 0.0000000e+0
vn 0.0000000e+0 1.00000000 0.0000000e+0
vn 0.0000000e+0 0.0000000e+0 0.0000000e+0
vn 0.0000000e+0 0.0000000e+0 0.0000000e+0
vn 0.0000000e+0 1.00000000 0.0000000e+0
vn 0.0000000e+0 1.00000000 0.0000000e+0
vn 0.0000000e+0 0.0000000e+0 0.0000000e+0
vn 0.0000000e+0 0.0000000e+0 0.0000000e+0
vn 0.0000000e+0 1.00000000 0.0000000e+0
vn 0.0000000e+0 1.00000000 0.0000000e+0
vn 0.0000000e+0 0.0000000e+0 0.0000000e+0
vn 0.0000000e+0 0.0000000e+0 0.0000000e+0
vn 0.0000000e+0 1.00000000 0.0000000e+0
vn 0.0000000e+0 1.00000000 0.0000000e+0
vn 0.0000000e+0 0.0000000e+0 0.0000000e+0
vn 0.0000000e+0 1.00000000 0.0000000e+0
vn 0.0000000e+0 1.00000000 0.0000000e+0
vn 0.0000000e+0 0.0000000e+0 0.0000000e+0
vn 0.0000000e+0 0.0000000e+0 0.0000000e+0
vn 0.0000000e+0 0.0000000e+0 0.0000000e+0
vn 0.0000000e+0 0.0000000e+0 0.0000000e+0
vn 0.0000000e+0 0.0000000e+0 0.0000000e+0
vn 0.0000000e+0 1.00000000 0.0000000e+0
vn 0.0000000e+0 1.00000000 0.0000000e+0
vn 0.0000000e+0 1.00000000 0.0000000e+0
vn 0.0000000e+0 1.00000000 0.0000000e+0
vn 0.0000000e+0 0.0000000e+0 0.0000000e+0
vn 0.0000000e+0 1.00000000 -1.1975577e-17
vn 0.0000000e+0 1.00000000 -1.1975577e-17
vn 0.0000000e+0 1.00000000 -1.1975577e-17
vn 0.0000000e+0 1.00000000 -1.1975577e-17
vn 0.0000000e+0 1.00000000 -1.1975577e-17
vn 0.0000000e+0 0.0000000e+0 0.0000000e+0
vn 0.0000000e+0 0.0000000e+0 0.0000000e+0
vn 0.0000000e+0 1.00000000 0.0000000e+0
vn 0.0000000e+0 1.00000000 0.0000000e+0
vn 0.0000000e+0 1.00000000 0.0000000e+0
vn 0.0000000e+0 0.0000000e+0 0.0000000e+0
vn 0.0000000e+0 0.0000000e+0 0.0000000e+0
vn 0.0000000e+0 1.00000000 0.0000000e+0
vn 0.0000000e+0 1.00000000 0.0000000e+0
vn 0.0000000e+0 1.00000000 0.0000000e+0
vn 0.0000000e+0 0.0000000e+0 0.0000000e+0
vn 0.0000000e+0 0.0000000e+0 0.0000000e+0
vn 0.0000000e+0 1.00000000 0.0000000e+0
vn 0.0000000e+0 1.00000000 0.0000000e+0
vn 0.0000000e+0 1.00000000 0.0000000e+0
vn 0.0000000e+0 0.0000000e+0 0.0000000e+0
vn 0.0000000e+0 1.00000000 0.0000000e+0
vn 0.0000000e+0 1.00000000 0.0000000e+0
vn 0.0000000e+0 1.00000000 0.0000000e+0
vn 0.0000000e+0 0.0000000e+0 0.0000000e+0
vn 0.0000000e+0 0.0000000e+0 0.0000000e+0
vn 0.0000000e+0 0.0000000e+0 0.0000000e+0
vn 0.0000000e+0 0.0000000e+0 0.0000000e+0
vn 0.0000000e+0 1.00000000 1.1975577e-17
vn 0.0000000e+0 1.00000000 1.1975577e-17
vn 0.0000000e+0 1.00000000 1.1975577e-17
vn 0.0000000e+0 1.00000000 1.1975577e-17
vn 0.0000000e+0 1.00000000 1.1975577e-17
vn 1.00000000 -3.0216681e-14 0.0000000e+0
vn 1.00000000 -3.0216681e-14 0.0000000e+0
vn 1.00000000 -3.0216681e-14 0.0000000e+0
vn 1.00000000 -3.0216681e-14 0.0000000e+0
vn 1.00000000 -3.0216681e-14 0.0000000e+0
vn 1.00000000 -3.0216681e-14 0.0000000e+0
vn 1.00000000 -3.0216681e-14 0.0000000e+0
vn 0.0000000e+0 -1.00000000 0.0000000e+0
vn 0.0000000e+0 0.0000000e+0 1.00000000
vn -1.00000000 -2.6439596e-14 0.0000000e+0
vn -1.00000000 -2.6439596e-14 0.0000000e+0
vn -1.00000000 -2.6439596e-14 0.0000000e+0
vn -1.00000000 -2.6439596e-14 0.0000000e+0
vn -1.00000000 -2.6439596e-14 0.0000000e+0
vn -1.00000000 -2.6439596e-14 0.0000000e+0
vn -1.00000000 -2.6439596e-14 0.0000000e+0
vn -1.00000000 -2.6439596e-14 0.0000000e+0
vn 0.0000000e+0 -1.00000000 0.0000000e+0
vn 0.0000000e+0 -1.00000000 0.0000000e+0
vn 0.0000000e+0 0.0000000e+0 1.00000000
vn 0.0000000e+0 0.0000000e+0 1.00000000
vn 1.00000000 0.0000000e+0 0.0000000e+0
vn 1.00000000 0.0000000e+0 0.0000000e+0
vn 0.0000000e+0 0.0000000e+0 1.00000000
vn 0.0000000e+0 0.0000000e+0 1.00000000
vn 0.0000000e+0 1.00000000 0.0000000e+0
vn 0.0000000e+0 1.00000000 0.0000000e+0
vn -1.00000000 0.0000000e+0 0.0000000e+0
vn 0.0000000e+0 0.0000000e+0 1.00000000
vn 0.0000000e+0 1.00000000 0.0000000e+0
vn -1.00000000 0.0000000e+0 0.0000000e+0
vn -1.00000000 0.0000000e+0 0.0000000e+0
vn 0.0000000e+0 1.00000000 -6.0197897e-17
vn 0.0000000e+0 1.00000000 -6.0197897e-17
vn 0.0000000e+0 1.00000000 -6.0197897e-17
vn 0.0000000e+0 1.00000000 -6.0197897e-17
vn 0.0000000e+0 1.00000000 -6.0197897e-17
vn 0.0000000e+0 0.0000000e+0 -1.00000000
vn 1.00000000 0.0000000e+0 0.0000000e+0
vn 1.00000000 0.0000000e+0 0.0000000e+0
vn 1.00000000 0.0000000e+0 0.0000000e+0
vn 0.0000000e+0 1.00000000 0.0000000e+0
vn 0.0000000e+0 1.00000000 0.0000000e+0
vn 0.0000000e+0 0.0000000e+0 -1.00000000
vn 0.0000000e+0 0.0000000e+0 -1.00000000
vn -1.00000000 0.0000000e+0 0.0000000e+0
vn -1.00000000 0.0000000e+0 0.0000000e+0
vn 0.0000000e+0 0.0000000e+0 -1.00000000
vn 0.0000000e+0 0.0000000e+0 -1.00000000
vn 0.0000000e+0 1.00000000 0.0000000e+0
vn 0.0000000e+0 1.00000000 0.0000000e+0
vn 1.00000000 0.0000000e+0 0.0000000e+0
vn 0.0000000e+0 0.0000000e+0 -1.00000000
vn 0.0000000e+0 1.00000000 0.0000000e+0
vn 1.00000000 -3.7007434e-14 0.0000000e+0
vn 1.00000000 -3.7007434e-14 0.0000000e+0
vn 1.00000000 -3.7007434e-14 0.0000000e+0
vn 0.0000000e+0 1.00000000 0.0000000e+0
vn 0.0000000e+0 0.0000000e+0 1.00000000
vn -1.00000000 -2.7755576e-14 0.0000000e+0
vn -1.00000000 -2.7755576e-14 0.0000000e+0
vn -1.00000000 -2.7755576e-14 0.0000000e+0
vn -1.00000000 -2.7755576e-14 0.0000000e+0
vn 0.0000000e+0 1.00000000 5.0164914e-17
vn 0.0000000e+0 1.00000000 5.0164914e-17
vn 0.0000000e+0 1.00000000 5.0164914e-17
vn 0.0000000e+0 1.00000000 5.0164914e-17
vn 0.0000000e+0 1.00000000 5.0164914e-17
vn 0.0000000e+0 1.00000000 5.0164914e-17
vn 0.0000000e+0 0.0000000e+0 1.00000000
vn 0.0000000e+0 0.0000000e+0 1.00000000
vn 1.00000000 0.0000000e+0 0.0000000e+0
vn 1.00000000 0.0000000e+0 0.0000000e+0
vn 0.0000000e+0 1.00000000 0.0000000e+0
vn 0.0000000e+0 1.00000000 0.0000000e+0
vn 0.0000000e+0 0.0000000e+0 1.00000000
vn 0.0000000e+0 0.0000000e+0 1.00000000
vn -1.00000000 0.0000000e+0 0.0000000e+0
vn 0.0000000e+0 1.00000000 0.0000000e+0
vn 0.0000000e+0 0.0000000e+0 1.00000000
vn 1.00000000 0.0000000e+0 0.0000000e+0
vn 1.00000000 0.0000000e+0 0.0000000e+0
vn 1.00000000 0.0000000e+0 0.0000000e+0
vn 0.0000000e+0 -1.00000000 0.0000000e+0
vn 0.0000000e+0 -1.00000000 0.0000000e+0
vn 0.0000000e+0 0.0000000e+0 -1.00000000
vn 0.0000000e+0 0.0000000e+0 -1.00000000
vn -1.00000000 0.0000000e+0 0.0000000e+0
vn -1.00000000 0.0000000e+0 0.0000000e+0
vn 0.0000000e+0 -1.00000000 0.0000000e+0
vn 0.0000000e+0 0.0000000e+0 -1.00000000
vn 1.00000000 0.0000000e+0 0.0000000e+0
vn 0.0000000e+0 1.00000000 0.0000000e+0
vn 0.0000000e+0 0.0000000e+0 -1.00000000
vn -1.00000000 0.0000000e+0 0.0000000e+0
vn -1.00000000 0.0000000e+0 0.0000000e+0
vn 0.0000000e+0 1.00000000 0.0000000e+0
vn 0.0000000e+0 1.00000000 0.0000000e+0
vn 0.0000000e+0 0.0000000e+0 -1.00000000
vn 0.0000000e+0 0.0000000e+0 -1.00000000
vn 1.00000000 0.0000000e+0 0.0000000e+0
vn 1.00000000 0.0000000e+0 0.0000000e+0
vn 0.0000000e+0 1.00000000 0.0000000e+0
vn 0.0000000e+0 1.00000000 0.0000000e+0
vn 1.00000000 -3.6369376e-14 0.0000000e+0
vn 1.00000000 -3.6369376e-14 0.0000000e+0
vn 0.0000000e+0 1.00000000 0.0000000e+0
vn 0.0000000e+0 1.00000000 0.0000000e+0
vn 0.0000000e+0 1.00000000 0.0000000e+0
vn -1.00000000 -3.6369376e-14 0.0000000e+0
vn -1.00000000 -3.6369376e-14 0.0000000e+0
vn 0.0000000e+0 1.00000000 -3.7184196e-18
vn 0.0000000e+0 1.00000000 -3.7184196e-18
vn 0.0000000e+0 1.00000000 -3.7184196e-18
vn -1.00000000 0.0000000e+0 0.0000000e+0
vn -1.00000000 0.0000000e+0 0.0000000e+0
vn 0.0000000e+0 1.00000000 3.7184196e-18
vn 0.0000000e+0 1.00000000 3.7184196e-18
vn 0.0000000e+0 1.00000000 3.7184196e-18
g road_crossing_asphalt
usemtl asphalt
s 1
f 10/19/46 16/24/65 9/18/38
f 12/20/50 16/24/66 10/19/47
f 13/21/54 16/24/67 12/20/51
f 14/22/58 16/24/68 13/21/55
f 15/23/62 16/24/69 14/22/59
f 24/29/80 32/33/99 23/28/74
f 27/30/85 32/33/100 24/29/81
f 28/31/90 32/33/101 27/30/86
f 31/32/95 32/33/102 28/31/91
s 2
f 1/4/22 3/16/1 2/8/27
f 1/4/20 9/18/39 3/16/1
f 1/4/21 52/3/214 9/18/40
f 3/16/1 4/17/2 2/8/28
f 3/16/1 9/18/41 4/17/2
f 4/17/2 17/25/6 2/8/25
f 5/46/3 7/54/32 6/47/4
f 5/46/3 22/45/11 21/44/10
f 5/46/3 53/53/219 7/54/31
f 6/47/4 22/45/11 5/46/3
f 6/47/4 54/60/224 22/45/11
f 7/54/33 8/58/37 6/47/4
f 8/58/36 54/60/225 6/47/4
f 9/18/42 11/26/5 10/19/48
f 9/18/43 16/24/70 4/17/2
f 11/26/5 12/20/52 10/19/49
f 11/26/5 13/21/56 12/20/53
f 11/26/5 14/22/60 13/21/57
f 11/26/5 15/23/63 14/22/61
f 11/26/5 16/24/71 15/23/64
f 11/26/5 17/25/6 16/24/72
f 11/26/5 18/27/7 17/25/6
f 11/26/5 23/28/75 18/27/7
f 16/24/73 17/25/6 4/17/2
f 17/25/6 51/10/210 2/8/26
f 18/27/7 32/33/103 20/43/9
f 19/42/8 21/44/10 20/43/9
f 19/42/8 23/28/76 11/26/5
f 19/42/8 25/36/12 23/28/77
f 19/42/8 26/37/13 25/36/12
f 19/42/8 29/38/14 26/37/13
f 19/42/8 30/39/15 29/38/14
f 19/42/8 33/40/16 30/39/15
f 19/42/8 34/41/17 33/40/16
f 20/43/9 34/41/17 19/42/8
f 21/44/10 22/45/11 20/43/9
f 21/44/10 53/53/220 5/46/3
f 23/28/78 25/36/12 24/29/82
f 23/28/79 32/33/104 18/27/7
f 25/36/12 26/37/13 24/29/83
f 26/37/13 27/30/87 24/29/84
f 26/37/13 29/38/14 27/30/88
f 27/30/89 29/38/14 28/31/92
f 29/38/14 30/39/15 28/31/93
f 30/39/15 31/32/96 28/31/94
f 30/39/15 33/40/16 31/32/97
f 31/32/98 33/40/16 32/33/105
f 32/33/106 34/41/17 20/43/9
f 33/40/16 34/41/17 32/33/107
f 36/12/125 47/51/191 35/62/115
f 36/12/126 48/1/197 47/51/192
s 3
f 2/34/23 35/7/108 1/35/18
f 2/34/24 51/15/208 35/7/109
f 7/34/29 36/55/117 8/35/34
f 7/34/30 53/15/217 36/55/118
f 35/7/110 40/13/146 37/9/129
f 35/7/111 47/57/188 43/49/162
f 35/7/112 51/15/209 40/13/147
f 35/7/113 52/48/212 1/35/19
f 36/55/119 41/50/153 39/49/138
f 36/55/120 53/15/218 44/13/167
f 36/55/121 54/48/222 8/35/35
f 38/59/135 41/50/154 36/55/122
f 39/49/139 54/48/223 36/55/123
f 40/13/148 42/14/159 37/9/130
f 43/49/163 47/57/189 45/50/179
f 43/49/164 52/48/213 35/7/114
f 44/13/168 48/5/195 36/55/124
f 44/13/169 50/9/202 48/5/196
f 46/14/185 50/9/203 44/13/170
f 47/57/190 49/59/199 45/50/180
g road_crossing_asphaltEdge
usemtl asphaltEdge
s 2
f 9/18/44 44/52/171 11/26/5
f 9/18/45 52/3/215 44/52/172
f 11/26/5 44/52/173 19/42/8
f 18/27/7 39/61/140 17/25/6
f 19/42/8 44/52/174 21/44/10
f 20/43/9 39/61/141 18/27/7
f 22/45/11 39/61/142 20/43/9
f 22/45/11 54/60/226 39/61/143
f 39/61/144 40/11/149 17/25/6
f 40/11/150 51/10/211 17/25/6
f 44/52/175 52/3/216 43/2/165
f 44/52/176 53/53/221 21/44/10
g road_crossing_pavement
usemtl pavement
s 1
f 35/56/116 37/59/131 36/6/127
f 37/59/132 38/9/136 36/6/128
f 39/58/145 41/59/155 40/8/151
f 41/59/156 42/9/160 40/8/152
f 43/58/166 45/59/183 44/8/177
f 45/59/184 46/9/187 44/8/178
f 47/6/193 50/59/206 49/9/201
f 48/56/198 50/59/207 47/6/194
s 2
f 37/12/133 41/61/157 38/62/137
f 37/12/134 42/11/161 41/61/158
f 45/2/181 50/51/204 46/52/186
f 49/1/200 50/51/205 45/2/182
